<?xml version="1.0" standalone="no"?>
<!DOCTYPE svg PUBLIC "-//W3C//DTD SVG 20010904//EN"
 "http://www.w3.org/TR/2001/REC-SVG-20010904/DTD/svg10.dtd">
<svg version="1.0" xmlns="http://www.w3.org/2000/svg"
 width="94.000000pt" height="94.000000pt" viewBox="0 0 94.000000 94.000000"
 preserveAspectRatio="xMidYMid meet">
<metadata>
Created by potrace 1.14, written by Peter Selinger 2001-2017
</metadata>
<g transform="translate(0.000000,94.000000) scale(0.100000,-0.100000)"
fill="#000000" stroke="none">
<path d="M353 869 c-73 -28 -143 -107 -143 -162 0 -9 -15 -20 -33 -26 -86 -29
-121 -145 -66 -225 32 -48 80 -69 157 -70 l62 -1 0 -46 c0 -39 -4 -49 -27 -64
-20 -14 -33 -15 -57 -8 -40 12 -74 -2 -82 -33 -9 -34 5 -64 33 -75 31 -12 58
2 78 41 9 17 21 30 28 30 37 1 69 56 71 120 1 33 3 35 36 35 l35 0 3 -92 c2
-82 0 -95 -18 -113 -11 -11 -20 -31 -20 -43 0 -53 75 -77 104 -35 21 30 20 55
-4 75 -17 15 -20 30 -20 114 l0 96 29 -1 c38 -2 38 -2 43 -59 5 -52 24 -79 69
-97 16 -7 29 -18 29 -24 0 -7 11 -23 24 -35 39 -37 96 -10 96 47 0 38 -76 72
-95 42 -3 -5 -19 -3 -40 7 -28 13 -36 24 -43 57 -11 49 -3 60 45 63 79 4 105
14 148 58 67 67 77 137 32 218 -26 47 -91 87 -138 87 -29 0 -41 8 -71 44 -68
81 -170 110 -265 75z"/>
</g>
</svg>
